<mxfile host="app.diagrams.net" modified="2021-07-24T19:08:24.405Z" agent="5.0 (Macintosh)" etag="QfKZY562ofmaGL6NrEN6" version="14.9.2" type="github">
  <diagram id="hyk8w-bVJRb5cHFdbb5j" name="Page-1">
    <mxGraphModel dx="2217" dy="1260" grid="1" gridSize="10" guides="1" tooltips="1" connect="1" arrows="1" fold="1" page="1" pageScale="1" pageWidth="850" pageHeight="1100" math="0" shadow="0">
      <root>
        <mxCell id="0" />
        <mxCell id="1" parent="0" />
        <mxCell id="-iayDu2l66xgWA1nQs0N-4" value="" style="rounded=0;whiteSpace=wrap;html=1;" vertex="1" parent="1">
          <mxGeometry x="40" y="50" width="260" height="480" as="geometry" />
        </mxCell>
        <mxCell id="-iayDu2l66xgWA1nQs0N-5" value="" style="rounded=0;whiteSpace=wrap;html=1;" vertex="1" parent="1">
          <mxGeometry x="50" y="60" width="260" height="480" as="geometry" />
        </mxCell>
        <mxCell id="-iayDu2l66xgWA1nQs0N-6" value="" style="rounded=0;whiteSpace=wrap;html=1;" vertex="1" parent="1">
          <mxGeometry x="60" y="70" width="260" height="480" as="geometry" />
        </mxCell>
        <mxCell id="-iayDu2l66xgWA1nQs0N-7" value="" style="rounded=0;whiteSpace=wrap;html=1;" vertex="1" parent="1">
          <mxGeometry x="70" y="80" width="260" height="480" as="geometry" />
        </mxCell>
        <mxCell id="-iayDu2l66xgWA1nQs0N-8" value="N Device" style="rounded=0;whiteSpace=wrap;html=1;verticalAlign=top;fontStyle=1" vertex="1" parent="1">
          <mxGeometry x="80" y="90" width="260" height="480" as="geometry" />
        </mxCell>
        <mxCell id="-iayDu2l66xgWA1nQs0N-15" style="edgeStyle=orthogonalEdgeStyle;rounded=0;orthogonalLoop=1;jettySize=auto;html=1;" edge="1" parent="1" source="-iayDu2l66xgWA1nQs0N-9" target="-iayDu2l66xgWA1nQs0N-12">
          <mxGeometry relative="1" as="geometry" />
        </mxCell>
        <mxCell id="-iayDu2l66xgWA1nQs0N-9" value="N Droid" style="shape=image;html=1;verticalAlign=top;verticalLabelPosition=bottom;labelBackgroundColor=#ffffff;imageAspect=0;aspect=fixed;image=https://cdn2.iconfinder.com/data/icons/innovation-technology-1/512/tech_0011-128.png" vertex="1" parent="1">
          <mxGeometry x="128" y="300" width="94" height="94" as="geometry" />
        </mxCell>
        <mxCell id="-iayDu2l66xgWA1nQs0N-16" style="edgeStyle=orthogonalEdgeStyle;rounded=0;orthogonalLoop=1;jettySize=auto;html=1;" edge="1" parent="1" source="-iayDu2l66xgWA1nQs0N-10" target="-iayDu2l66xgWA1nQs0N-13">
          <mxGeometry relative="1" as="geometry" />
        </mxCell>
        <mxCell id="-iayDu2l66xgWA1nQs0N-10" value="N Mobile App" style="shape=image;html=1;verticalAlign=top;verticalLabelPosition=bottom;labelBackgroundColor=#ffffff;imageAspect=0;aspect=fixed;image=https://cdn2.iconfinder.com/data/icons/kitchen-appliances-computers-and-electronics/32/Appliances-06-128.png" vertex="1" parent="1">
          <mxGeometry x="118" y="135" width="104" height="104" as="geometry" />
        </mxCell>
        <mxCell id="-iayDu2l66xgWA1nQs0N-17" style="edgeStyle=orthogonalEdgeStyle;rounded=0;orthogonalLoop=1;jettySize=auto;html=1;entryX=0;entryY=0.5;entryDx=0;entryDy=0;" edge="1" parent="1" source="-iayDu2l66xgWA1nQs0N-11" target="-iayDu2l66xgWA1nQs0N-14">
          <mxGeometry relative="1" as="geometry" />
        </mxCell>
        <mxCell id="-iayDu2l66xgWA1nQs0N-11" value="N IoT Camera" style="outlineConnect=0;fontColor=#232F3E;gradientColor=none;fillColor=#277116;strokeColor=none;dashed=0;verticalLabelPosition=bottom;verticalAlign=top;align=center;html=1;fontSize=12;fontStyle=0;aspect=fixed;pointerEvents=1;shape=mxgraph.aws4.camera;" vertex="1" parent="1">
          <mxGeometry x="131" y="462" width="78" height="78" as="geometry" />
        </mxCell>
        <mxCell id="-iayDu2l66xgWA1nQs0N-25" style="edgeStyle=orthogonalEdgeStyle;rounded=0;orthogonalLoop=1;jettySize=auto;html=1;entryX=0;entryY=0.5;entryDx=0;entryDy=0;" edge="1" parent="1" source="-iayDu2l66xgWA1nQs0N-12" target="-iayDu2l66xgWA1nQs0N-18">
          <mxGeometry relative="1" as="geometry" />
        </mxCell>
        <mxCell id="-iayDu2l66xgWA1nQs0N-12" value="Frames" style="shape=image;html=1;verticalAlign=top;verticalLabelPosition=bottom;labelBackgroundColor=#ffffff;imageAspect=0;aspect=fixed;image=https://cdn4.iconfinder.com/data/icons/48x48-free-object-icons/48/Multimedia.png" vertex="1" parent="1">
          <mxGeometry x="262" y="323" width="48" height="48" as="geometry" />
        </mxCell>
        <mxCell id="-iayDu2l66xgWA1nQs0N-28" style="edgeStyle=orthogonalEdgeStyle;rounded=0;orthogonalLoop=1;jettySize=auto;html=1;entryX=0;entryY=0.5;entryDx=0;entryDy=0;" edge="1" parent="1" source="-iayDu2l66xgWA1nQs0N-13" target="-iayDu2l66xgWA1nQs0N-27">
          <mxGeometry relative="1" as="geometry" />
        </mxCell>
        <mxCell id="-iayDu2l66xgWA1nQs0N-13" value="Frames" style="shape=image;html=1;verticalAlign=top;verticalLabelPosition=bottom;labelBackgroundColor=#ffffff;imageAspect=0;aspect=fixed;image=https://cdn4.iconfinder.com/data/icons/48x48-free-object-icons/48/Multimedia.png" vertex="1" parent="1">
          <mxGeometry x="262" y="163" width="48" height="48" as="geometry" />
        </mxCell>
        <mxCell id="-iayDu2l66xgWA1nQs0N-26" style="edgeStyle=orthogonalEdgeStyle;rounded=0;orthogonalLoop=1;jettySize=auto;html=1;entryX=0;entryY=0.5;entryDx=0;entryDy=0;" edge="1" parent="1" source="-iayDu2l66xgWA1nQs0N-14" target="-iayDu2l66xgWA1nQs0N-18">
          <mxGeometry relative="1" as="geometry" />
        </mxCell>
        <mxCell id="-iayDu2l66xgWA1nQs0N-14" value="Frames" style="shape=image;html=1;verticalAlign=top;verticalLabelPosition=bottom;labelBackgroundColor=#ffffff;imageAspect=0;aspect=fixed;image=https://cdn4.iconfinder.com/data/icons/48x48-free-object-icons/48/Multimedia.png" vertex="1" parent="1">
          <mxGeometry x="257" y="477" width="48" height="48" as="geometry" />
        </mxCell>
        <mxCell id="-iayDu2l66xgWA1nQs0N-32" style="edgeStyle=orthogonalEdgeStyle;rounded=0;orthogonalLoop=1;jettySize=auto;html=1;entryX=-0.06;entryY=0.55;entryDx=0;entryDy=0;entryPerimeter=0;" edge="1" parent="1" source="-iayDu2l66xgWA1nQs0N-18" target="-iayDu2l66xgWA1nQs0N-30">
          <mxGeometry relative="1" as="geometry" />
        </mxCell>
        <mxCell id="-iayDu2l66xgWA1nQs0N-18" value="MQTT Broker" style="aspect=fixed;perimeter=ellipsePerimeter;html=1;align=center;shadow=0;dashed=0;fontColor=#4277BB;labelBackgroundColor=#ffffff;fontSize=12;spacingTop=3;image;image=img/lib/ibm/applications/service_broker.svg;" vertex="1" parent="1">
          <mxGeometry x="480" y="520" width="90" height="90" as="geometry" />
        </mxCell>
        <mxCell id="-iayDu2l66xgWA1nQs0N-31" style="edgeStyle=orthogonalEdgeStyle;rounded=0;orthogonalLoop=1;jettySize=auto;html=1;" edge="1" parent="1" source="-iayDu2l66xgWA1nQs0N-27" target="-iayDu2l66xgWA1nQs0N-29">
          <mxGeometry relative="1" as="geometry" />
        </mxCell>
        <mxCell id="-iayDu2l66xgWA1nQs0N-27" value="Services Bus" style="aspect=fixed;html=1;points=[];align=center;image;fontSize=12;image=img/lib/mscae/Service_Bus.svg;shadow=0;dashed=0;fontFamily=Helvetica;fontColor=#4277BB;strokeColor=#000000;fillColor=#ffffff;" vertex="1" parent="1">
          <mxGeometry x="480" y="70" width="90" height="90" as="geometry" />
        </mxCell>
        <mxCell id="-iayDu2l66xgWA1nQs0N-40" style="edgeStyle=orthogonalEdgeStyle;rounded=0;orthogonalLoop=1;jettySize=auto;html=1;" edge="1" parent="1" source="-iayDu2l66xgWA1nQs0N-29" target="-iayDu2l66xgWA1nQs0N-34">
          <mxGeometry relative="1" as="geometry" />
        </mxCell>
        <mxCell id="-iayDu2l66xgWA1nQs0N-46" style="edgeStyle=orthogonalEdgeStyle;rounded=0;orthogonalLoop=1;jettySize=auto;html=1;" edge="1" parent="1" source="-iayDu2l66xgWA1nQs0N-29" target="-iayDu2l66xgWA1nQs0N-45">
          <mxGeometry relative="1" as="geometry" />
        </mxCell>
        <mxCell id="-iayDu2l66xgWA1nQs0N-29" value="Consumer Services bus" style="aspect=fixed;html=1;points=[];align=center;image;fontSize=12;image=img/lib/mscae/Databricks.svg;" vertex="1" parent="1">
          <mxGeometry x="690" y="75" width="83.33" height="80" as="geometry" />
        </mxCell>
        <mxCell id="-iayDu2l66xgWA1nQs0N-41" style="edgeStyle=orthogonalEdgeStyle;rounded=0;orthogonalLoop=1;jettySize=auto;html=1;entryX=0.477;entryY=1.021;entryDx=0;entryDy=0;entryPerimeter=0;" edge="1" parent="1" source="-iayDu2l66xgWA1nQs0N-30" target="-iayDu2l66xgWA1nQs0N-34">
          <mxGeometry relative="1" as="geometry" />
        </mxCell>
        <mxCell id="-iayDu2l66xgWA1nQs0N-30" value="Consumer MQTT Broker" style="aspect=fixed;html=1;points=[];align=center;image;fontSize=12;image=img/lib/mscae/Databricks.svg;" vertex="1" parent="1">
          <mxGeometry x="680" y="521" width="83.33" height="80" as="geometry" />
        </mxCell>
        <mxCell id="-iayDu2l66xgWA1nQs0N-34" value="" style="rounded=0;whiteSpace=wrap;html=1;verticalAlign=middle;labelPosition=center;verticalLabelPosition=middle;align=center;spacingLeft=4;" vertex="1" parent="1">
          <mxGeometry x="511.67" y="224.5" width="440" height="211" as="geometry" />
        </mxCell>
        <mxCell id="-iayDu2l66xgWA1nQs0N-39" value="" style="shape=image;verticalLabelPosition=bottom;labelBackgroundColor=#ffffff;verticalAlign=top;aspect=fixed;imageAspect=0;image=https://miro.medium.com/max/612/1*vxgVZ4LubyxAW43YYH8Law.jpeg;" vertex="1" parent="1">
          <mxGeometry x="695.5700000000002" y="237" width="72.2" height="59.15" as="geometry" />
        </mxCell>
        <mxCell id="-iayDu2l66xgWA1nQs0N-42" value="RAW" style="aspect=fixed;html=1;points=[];align=center;image;fontSize=12;image=img/lib/mscae/Data_Lake.svg;" vertex="1" parent="1">
          <mxGeometry x="571.6700000000001" y="315" width="49.4" height="65" as="geometry" />
        </mxCell>
        <mxCell id="-iayDu2l66xgWA1nQs0N-43" value="CURATE" style="aspect=fixed;html=1;points=[];align=center;image;fontSize=12;image=img/lib/mscae/Data_Lake.svg;" vertex="1" parent="1">
          <mxGeometry x="706.97" y="315" width="49.4" height="65" as="geometry" />
        </mxCell>
        <mxCell id="-iayDu2l66xgWA1nQs0N-44" value="MASTER" style="aspect=fixed;html=1;points=[];align=center;image;fontSize=12;image=img/lib/mscae/Data_Lake.svg;" vertex="1" parent="1">
          <mxGeometry x="831.6700000000001" y="315" width="49.4" height="65" as="geometry" />
        </mxCell>
        <mxCell id="-iayDu2l66xgWA1nQs0N-49" style="edgeStyle=orthogonalEdgeStyle;rounded=0;orthogonalLoop=1;jettySize=auto;html=1;" edge="1" parent="1" source="-iayDu2l66xgWA1nQs0N-45" target="-iayDu2l66xgWA1nQs0N-48">
          <mxGeometry relative="1" as="geometry" />
        </mxCell>
        <mxCell id="-iayDu2l66xgWA1nQs0N-45" value="Services Bus" style="aspect=fixed;html=1;points=[];align=center;image;fontSize=12;image=img/lib/mscae/Service_Bus_Relay.svg;" vertex="1" parent="1">
          <mxGeometry x="1040" y="72.5" width="85" height="85" as="geometry" />
        </mxCell>
        <mxCell id="-iayDu2l66xgWA1nQs0N-51" style="edgeStyle=orthogonalEdgeStyle;rounded=0;orthogonalLoop=1;jettySize=auto;html=1;" edge="1" parent="1" source="-iayDu2l66xgWA1nQs0N-48" target="-iayDu2l66xgWA1nQs0N-55">
          <mxGeometry relative="1" as="geometry">
            <mxPoint x="1428.5000000000005" y="298.5" as="targetPoint" />
          </mxGeometry>
        </mxCell>
        <mxCell id="-iayDu2l66xgWA1nQs0N-48" value="Cached DB" style="aspect=fixed;html=1;points=[];align=center;image;fontSize=12;image=img/lib/mscae/Cache_Redis_Product.svg;" vertex="1" parent="1">
          <mxGeometry x="1240" y="73.5" width="98.81" height="83" as="geometry" />
        </mxCell>
        <mxCell id="-iayDu2l66xgWA1nQs0N-55" value="Mobile App" style="aspect=fixed;html=1;points=[];align=center;image;fontSize=12;image=img/lib/mscae/App_Service_Mobile_App.svg;" vertex="1" parent="1">
          <mxGeometry x="1500" y="65" width="68" height="100" as="geometry" />
        </mxCell>
      </root>
    </mxGraphModel>
  </diagram>
</mxfile>
